<mxfile modified="2022-05-08T23:18:35.111Z" host="app.diagrams.net" agent="5.0 (Windows NT 10.0; Win64; x64) AppleWebKit/537.36 (KHTML, like Gecko) Chrome/101.0.4951.54 Safari/537.36 Edg/101.0.1210.39" etag="6sk5469ktmZFSZo06VC0" compressed="false" version="18.0.2" type="google">
  <diagram name="DISESTABLISHMENT VIEW" id="BNg1SuoFjokhpZIynaqC">
    <mxGraphModel grid="1" page="1" gridSize="10" guides="1" tooltips="1" connect="1" arrows="1" fold="1" pageScale="1" pageWidth="827" pageHeight="1169" math="0" shadow="0">
      <root>
        <mxCell id="JA8J-vatUUIXtlx2oIzW-0" />
        <mxCell id="JA8J-vatUUIXtlx2oIzW-1" value="About" parent="JA8J-vatUUIXtlx2oIzW-0" />
        <mxCell id="JA8J-vatUUIXtlx2oIzW-3" value="Title" parent="JA8J-vatUUIXtlx2oIzW-0" />
        <mxCell id="JA8J-vatUUIXtlx2oIzW-4" value="Disestablishment View" style="text;html=1;strokeColor=none;fillColor=none;align=center;verticalAlign=middle;whiteSpace=wrap;rounded=0;fontSize=48;opacity=30;" vertex="1" parent="JA8J-vatUUIXtlx2oIzW-3">
          <mxGeometry x="160" y="200" width="480" height="320" as="geometry" />
        </mxCell>
      </root>
    </mxGraphModel>
  </diagram>
</mxfile>
